<svg version="1.1"
      xmlns="http://www.w3.org/2000/svg"
      xmlns:xlink="http://www.w3.org/1999/xlink"  id="snapshot-57875" width="250" height="250" viewBox="0 0 250 250"><desc>This image was made on Patterninja.com</desc><defs>
<!-- image 21732 -->
<g id="transformed-21732" data-image="21732" transform="translate(84.97858285309198, 62.7319047575769) rotate(0, 24.52141714690803, 26.198095242423104)"><g><svg version="1.1" width="49.04283429381606px" height="52.39619048484621px" viewBox="0 0 49.04283429381606 52.39619048484621"><g id="original-21732"><svg xmlns="http://www.w3.org/2000/svg" viewBox="0 0 60 64" xmlns:xlink="http://www.w3.org/1999/xlink" version="1.1" preserveAspectRatio="xMidYMid meet">
  <rect width="60" height="42" y="22" fill-rule="evenodd" rx="5" fill="rgba(54, 217, 103, 1)" stroke="none"/>
  <path fill-rule="evenodd" d="M30 22h24.996A5.006 5.006 0 0 1 60 27.004v31.992a4.993 4.993 0 0 1-5.004 5L30 63.976V22z" fill="rgba(13, 201, 129, 1)" stroke="none"/>
  <path fill-rule="evenodd" d="M37 40a7 7 0 1 0-14 0 6.992 6.992 0 0 0 4 6.317V53h6v-6.683A6.992 6.992 0 0 0 37 40" fill="rgba(0, 138, 27, 1)" stroke="none"/>
  <path fill-rule="evenodd" d="M30 0C17.85 0 8 9.85 8 22h8c0-7.732 6.268-14 14-14s14 6.268 14 14h8C52 9.85 42.15 0 30 0" fill="rgba(235, 233, 233, 1)" stroke="none"/>
</svg>
</g></svg></g></g>
<!-- /image 21732 -->

<!-- image 33653 -->
<g id="transformed-33653" data-image="33653" transform="translate(4.8952360916175905, 4.949548536685807) rotate(0, 22.63476390838241, 21.910451463314192)"><g><svg version="1.1" width="45.26952781676482px" height="43.820902926628385px" viewBox="0 0 45.26952781676482 43.820902926628385"><g id="original-33653"><svg xmlns="http://www.w3.org/2000/svg" viewBox="0 0 70 68" xmlns:xlink="http://www.w3.org/1999/xlink" version="1.1" preserveAspectRatio="xMidYMid meet">
  <path fill-rule="evenodd" d="M14 65c9.113 0 11-2.853 11-8 0-.169-.02-.832-.025-1h20.05c0 .168-.025.831-.025 1 0 5.147 1.887 8 11 8v3H14v-3z" fill="rgba(197, 184, 184, 1)" stroke="none"/>
  <rect width="70" height="54" y="2" fill-rule="evenodd" rx="6" fill="rgba(255, 255, 255, 1)" stroke="none"/>
  <path fill-rule="evenodd" d="M70 47V5.998A5.993 5.993 0 0 0 64.002 0H5.998A5.995 5.995 0 0 0 0 5.998V47h70z" fill="rgba(150, 187, 255, 1)" stroke="none"/>
  <circle cx="35" cy="52" r="3" fill-rule="evenodd" fill="rgba(80, 96, 121, 1)" stroke="none"/>
</svg>
</g></svg></g></g>
<!-- /image 33653 -->

<!-- image 06859 -->
<g id="transformed-06859" data-image="06859" transform="translate(173.84086628226643, 150.30142850519437) rotate(0, 16.60913371773355, 27.388571494805642)"><g><svg version="1.1" width="33.2182674354671px" height="54.777142989611285px" viewBox="0 0 33.2182674354671 54.777142989611285"><g id="original-06859"><svg xmlns="http://www.w3.org/2000/svg" viewBox="0 0 46 76" xmlns:xlink="http://www.w3.org/1999/xlink" version="1.1" preserveAspectRatio="xMidYMid meet">
  <rect width="46" height="76" fill-rule="evenodd" rx="6" fill="rgba(80, 89, 104, 1)" stroke="none"/>
  <path fill-rule="evenodd" d="M4 12h38v52H4z" fill="rgba(232, 238, 213, 1)" stroke="none"/>
  <path fill-rule="evenodd" d="M19 5h8a1 1 0 0 1 0 2h-8a1 1 0 0 1 0-2z" fill="rgba(136, 141, 151, 1)" stroke="none"/>
  <path fill-rule="evenodd" d="M23 66a3 3 0 1 1 0 6 3 3 0 0 1 0-6z" fill="rgba(136, 141, 151, 1)" stroke="none"/>
</svg>
</g></svg></g></g>
<!-- /image 06859 -->
</defs><rect x="0" y="0" width="250" height="250" fill="rgba(137, 208, 252, 1)"></rect><use xlink:href="#transformed-21732" transform="translate(-250, -250)"></use><use xlink:href="#transformed-21732" transform="translate(0, -250)"></use><use xlink:href="#transformed-21732" transform="translate(250, -250)"></use><use xlink:href="#transformed-21732" transform="translate(-250, 0)"></use><use xlink:href="#transformed-21732" transform="translate(0, 0)"></use><use xlink:href="#transformed-21732" transform="translate(250, 0)"></use><use xlink:href="#transformed-21732" transform="translate(-250, 250)"></use><use xlink:href="#transformed-21732" transform="translate(0, 250)"></use><use xlink:href="#transformed-21732" transform="translate(250, 250)"></use><use xlink:href="#transformed-33653" transform="translate(-250, -250)"></use><use xlink:href="#transformed-33653" transform="translate(0, -250)"></use><use xlink:href="#transformed-33653" transform="translate(250, -250)"></use><use xlink:href="#transformed-33653" transform="translate(-250, 0)"></use><use xlink:href="#transformed-33653" transform="translate(0, 0)"></use><use xlink:href="#transformed-33653" transform="translate(250, 0)"></use><use xlink:href="#transformed-33653" transform="translate(-250, 250)"></use><use xlink:href="#transformed-33653" transform="translate(0, 250)"></use><use xlink:href="#transformed-33653" transform="translate(250, 250)"></use><use xlink:href="#transformed-06859" transform="translate(-250, -250)"></use><use xlink:href="#transformed-06859" transform="translate(0, -250)"></use><use xlink:href="#transformed-06859" transform="translate(250, -250)"></use><use xlink:href="#transformed-06859" transform="translate(-250, 0)"></use><use xlink:href="#transformed-06859" transform="translate(0, 0)"></use><use xlink:href="#transformed-06859" transform="translate(250, 0)"></use><use xlink:href="#transformed-06859" transform="translate(-250, 250)"></use><use xlink:href="#transformed-06859" transform="translate(0, 250)"></use><use xlink:href="#transformed-06859" transform="translate(250, 250)"></use></svg>